<mxfile host="app.diagrams.net" agent="Mozilla/5.0 (Macintosh; Intel Mac OS X 10_15_7) AppleWebKit/537.36 (KHTML, like Gecko) Chrome/131.0.0.0 Safari/537.36" version="26.0.4">
  <diagram name="Page-1" id="5HZdJz2moyTFa33PhYxD">
    <mxGraphModel dx="1774" dy="1121" grid="1" gridSize="10" guides="1" tooltips="1" connect="1" arrows="1" fold="1" page="1" pageScale="1" pageWidth="850" pageHeight="1100" math="0" shadow="0">
      <root>
        <mxCell id="0" />
        <mxCell id="1" parent="0" />
        <mxCell id="VHHmFpENQBz-ZfLlpOT_-1" value="" style="rounded=0;whiteSpace=wrap;html=1;" parent="1" vertex="1">
          <mxGeometry x="40" y="160" width="720" height="510" as="geometry" />
        </mxCell>
        <mxCell id="VHHmFpENQBz-ZfLlpOT_-2" value="" style="rounded=0;whiteSpace=wrap;html=1;" parent="1" vertex="1">
          <mxGeometry x="40" y="160" width="720" height="40" as="geometry" />
        </mxCell>
        <mxCell id="VHHmFpENQBz-ZfLlpOT_-4" value="&lt;span style=&quot;font-size: 10px;&quot;&gt;login&lt;/span&gt;" style="ellipse;whiteSpace=wrap;html=1;aspect=fixed;" parent="1" vertex="1">
          <mxGeometry x="710" y="166.25" width="27.5" height="27.5" as="geometry" />
        </mxCell>
        <mxCell id="VHHmFpENQBz-ZfLlpOT_-12" value="Home" style="rounded=1;whiteSpace=wrap;html=1;" parent="1" vertex="1">
          <mxGeometry x="60" y="168.75" width="50" height="22.5" as="geometry" />
        </mxCell>
        <mxCell id="VHHmFpENQBz-ZfLlpOT_-13" value="Play" style="rounded=1;whiteSpace=wrap;html=1;" parent="1" vertex="1">
          <mxGeometry x="130" y="168.75" width="50" height="22.5" as="geometry" />
        </mxCell>
        <mxCell id="VHHmFpENQBz-ZfLlpOT_-14" value="Host" style="rounded=1;whiteSpace=wrap;html=1;" parent="1" vertex="1">
          <mxGeometry x="200" y="168.75" width="50" height="22.5" as="geometry" />
        </mxCell>
        <mxCell id="EWYc85PjEN9m_NPapymb-1" value="" style="rounded=0;whiteSpace=wrap;html=1;" vertex="1" parent="1">
          <mxGeometry x="40" y="200" width="720" height="60" as="geometry" />
        </mxCell>
        <mxCell id="EWYc85PjEN9m_NPapymb-2" value="Date" style="rounded=1;whiteSpace=wrap;html=1;" vertex="1" parent="1">
          <mxGeometry x="100" y="210" width="80" height="40" as="geometry" />
        </mxCell>
        <mxCell id="EWYc85PjEN9m_NPapymb-3" value="Date" style="rounded=1;whiteSpace=wrap;html=1;" vertex="1" parent="1">
          <mxGeometry x="220" y="210" width="80" height="40" as="geometry" />
        </mxCell>
        <mxCell id="EWYc85PjEN9m_NPapymb-4" value="Date" style="rounded=1;whiteSpace=wrap;html=1;" vertex="1" parent="1">
          <mxGeometry x="340" y="210" width="80" height="40" as="geometry" />
        </mxCell>
        <mxCell id="EWYc85PjEN9m_NPapymb-5" value="Date" style="rounded=1;whiteSpace=wrap;html=1;" vertex="1" parent="1">
          <mxGeometry x="460" y="210" width="80" height="40" as="geometry" />
        </mxCell>
        <mxCell id="EWYc85PjEN9m_NPapymb-6" value="Date" style="rounded=1;whiteSpace=wrap;html=1;" vertex="1" parent="1">
          <mxGeometry x="580" y="210" width="80" height="40" as="geometry" />
        </mxCell>
        <mxCell id="EWYc85PjEN9m_NPapymb-9" value="" style="rounded=0;whiteSpace=wrap;html=1;" vertex="1" parent="1">
          <mxGeometry x="690" y="200" width="70" height="60" as="geometry" />
        </mxCell>
        <mxCell id="EWYc85PjEN9m_NPapymb-16" value="" style="rounded=1;whiteSpace=wrap;html=1;" vertex="1" parent="1">
          <mxGeometry x="100" y="320" width="580" height="140" as="geometry" />
        </mxCell>
        <mxCell id="EWYc85PjEN9m_NPapymb-18" value="" style="rounded=0;whiteSpace=wrap;html=1;" vertex="1" parent="1">
          <mxGeometry x="740" y="260" width="20" height="410" as="geometry" />
        </mxCell>
        <mxCell id="EWYc85PjEN9m_NPapymb-19" value="" style="rounded=1;whiteSpace=wrap;html=1;" vertex="1" parent="1">
          <mxGeometry x="745" y="420" width="10" height="60" as="geometry" />
        </mxCell>
        <mxCell id="EWYc85PjEN9m_NPapymb-20" value="Events" style="rounded=0;whiteSpace=wrap;html=1;" vertex="1" parent="1">
          <mxGeometry x="110" y="270" width="100" height="30" as="geometry" />
        </mxCell>
        <mxCell id="EWYc85PjEN9m_NPapymb-34" value="" style="rounded=0;whiteSpace=wrap;html=1;" vertex="1" parent="1">
          <mxGeometry x="705" y="210" width="40" height="40" as="geometry" />
        </mxCell>
        <mxCell id="EWYc85PjEN9m_NPapymb-30" value="" style="rounded=0;whiteSpace=wrap;html=1;" vertex="1" parent="1">
          <mxGeometry x="712.5" y="215" width="10" height="10" as="geometry" />
        </mxCell>
        <mxCell id="EWYc85PjEN9m_NPapymb-31" value="" style="rounded=0;whiteSpace=wrap;html=1;" vertex="1" parent="1">
          <mxGeometry x="730" y="215" width="10" height="10" as="geometry" />
        </mxCell>
        <mxCell id="EWYc85PjEN9m_NPapymb-32" value="" style="rounded=0;whiteSpace=wrap;html=1;" vertex="1" parent="1">
          <mxGeometry x="712.5" y="235" width="10" height="10" as="geometry" />
        </mxCell>
        <mxCell id="EWYc85PjEN9m_NPapymb-33" value="" style="rounded=0;whiteSpace=wrap;html=1;" vertex="1" parent="1">
          <mxGeometry x="730" y="235" width="10" height="10" as="geometry" />
        </mxCell>
        <mxCell id="EWYc85PjEN9m_NPapymb-35" value="Event Title" style="rounded=0;whiteSpace=wrap;html=1;" vertex="1" parent="1">
          <mxGeometry x="120" y="330" width="80" height="30" as="geometry" />
        </mxCell>
        <mxCell id="EWYc85PjEN9m_NPapymb-36" value="Time" style="rounded=0;whiteSpace=wrap;html=1;" vertex="1" parent="1">
          <mxGeometry x="220" y="330" width="80" height="30" as="geometry" />
        </mxCell>
        <mxCell id="EWYc85PjEN9m_NPapymb-37" value="Address" style="rounded=0;whiteSpace=wrap;html=1;" vertex="1" parent="1">
          <mxGeometry x="115" y="420" width="80" height="30" as="geometry" />
        </mxCell>
        <mxCell id="EWYc85PjEN9m_NPapymb-38" value="Sport" style="rounded=0;whiteSpace=wrap;html=1;" vertex="1" parent="1">
          <mxGeometry x="220" y="420" width="80" height="30" as="geometry" />
        </mxCell>
        <mxCell id="EWYc85PjEN9m_NPapymb-39" value="Host" style="rounded=0;whiteSpace=wrap;html=1;" vertex="1" parent="1">
          <mxGeometry x="580" y="330" width="80" height="30" as="geometry" />
        </mxCell>
        <mxCell id="EWYc85PjEN9m_NPapymb-40" value="Attendees" style="rounded=0;whiteSpace=wrap;html=1;" vertex="1" parent="1">
          <mxGeometry x="580" y="420" width="80" height="30" as="geometry" />
        </mxCell>
        <mxCell id="EWYc85PjEN9m_NPapymb-41" value="" style="rounded=1;whiteSpace=wrap;html=1;" vertex="1" parent="1">
          <mxGeometry x="100" y="500" width="580" height="140" as="geometry" />
        </mxCell>
        <mxCell id="EWYc85PjEN9m_NPapymb-42" value="Event Title" style="rounded=0;whiteSpace=wrap;html=1;" vertex="1" parent="1">
          <mxGeometry x="120" y="510" width="80" height="30" as="geometry" />
        </mxCell>
        <mxCell id="EWYc85PjEN9m_NPapymb-43" value="Time" style="rounded=0;whiteSpace=wrap;html=1;" vertex="1" parent="1">
          <mxGeometry x="220" y="510" width="80" height="30" as="geometry" />
        </mxCell>
        <mxCell id="EWYc85PjEN9m_NPapymb-44" value="Address" style="rounded=0;whiteSpace=wrap;html=1;" vertex="1" parent="1">
          <mxGeometry x="115" y="600" width="80" height="30" as="geometry" />
        </mxCell>
        <mxCell id="EWYc85PjEN9m_NPapymb-45" value="Sport" style="rounded=0;whiteSpace=wrap;html=1;" vertex="1" parent="1">
          <mxGeometry x="220" y="600" width="80" height="30" as="geometry" />
        </mxCell>
        <mxCell id="EWYc85PjEN9m_NPapymb-46" value="Host" style="rounded=0;whiteSpace=wrap;html=1;" vertex="1" parent="1">
          <mxGeometry x="580" y="510" width="80" height="30" as="geometry" />
        </mxCell>
        <mxCell id="EWYc85PjEN9m_NPapymb-47" value="Attendees" style="rounded=0;whiteSpace=wrap;html=1;" vertex="1" parent="1">
          <mxGeometry x="580" y="600" width="80" height="30" as="geometry" />
        </mxCell>
      </root>
    </mxGraphModel>
  </diagram>
</mxfile>
